<?xml version="1.0" encoding="utf-8"?>
<!-- Generator: Adobe Illustrator 26.3.1, SVG Export Plug-In . SVG Version: 6.00 Build 0)  -->
<svg version="1.1" id="Layer_1" xmlns="http://www.w3.org/2000/svg" xmlns:xlink="http://www.w3.org/1999/xlink" x="0px" y="0px"
	 viewBox="0 0 1600 1600" style="enable-background:new 0 0 1600 1600;" xml:space="preserve">
<style type="text/css">
	.st0{fill:#FFFFFF;}
</style>
<g>
	<path class="st0" d="M793,568c5,0,10,0,15,0c1.41,0.28,2.8,0.67,4.22,0.82c8.6,0.93,17.29,1.34,25.8,2.76
		c50.57,8.47,93.82,31.13,129.27,68.19c36.2,37.84,57.11,82.97,62.86,135.07c0.63,5.72,1.23,11.44,1.85,17.16c0,5,0,10,0,15
		c-0.28,1.41-0.67,2.8-0.82,4.22c-0.93,8.6-1.34,17.28-2.76,25.8c-8.47,50.57-31.13,93.82-68.18,129.27
		c-37.84,36.21-82.97,57.11-135.07,62.86c-5.72,0.63-11.44,1.23-17.17,1.85c-5,0-10,0-15,0c-1.41-0.28-2.8-0.67-4.22-0.82
		c-8.6-0.93-17.28-1.34-25.8-2.76c-50.57-8.47-93.82-31.13-129.27-68.18c-36.21-37.84-57.11-82.97-62.86-135.07
		c-0.63-5.72-1.23-11.44-1.85-17.16c0-5,0-10,0-15c0.28-1.41,0.67-2.8,0.82-4.22c0.93-8.6,1.34-17.28,2.76-25.8
		c8.47-50.57,31.13-93.82,68.18-129.27c37.84-36.21,82.97-57.11,135.07-62.86C781.56,569.22,787.28,568.62,793,568z M794.13,1018.38
		c0.17-1.71,0.34-2.67,0.35-3.64c0.01-38.82-0.17-77.64,0.08-116.46c0.15-24.14-10.12-42.64-29.3-56.52
		c-15.99-11.57-33.7-14.3-52.1-7.33c-23.93,9.07-39.49,28.77-38.39,56.44c0.65,16.4-0.16,32.98-1.91,49.3
		c-1.11,10.39-5.16,20.47-8.03,31.24C702.29,1000.66,745.27,1016.63,794.13,1018.38z M807.01,871.97
		c0.24,10.45,2.93,19.43,9.34,26.94c15.69,18.38,35.64,28.01,59.91,28.06c22.09,0.05,41.45,7.2,58.09,21.67
		c4.61,4.01,8.93,8.35,13.37,12.54c40.23-31.43,74.65-106.67,71.2-155.9c-38.18,0-76.38,0-115.56,0
		c11.86,7.45,21.62,15.73,26.92,28.19c5.23,12.31,5.41,25.14,4.47,38.5C892.15,871.97,849.88,871.97,807.01,871.97z M806.51,579.76
		c0,7.94,0.13,14.39-0.05,20.83c-0.09,3.13,0.91,4.16,4.15,4.6c37.84,5.06,63.22,27.54,81.58,59.33c2.86,4.94,4.74,10.75,5.76,16.39
		c1.87,10.29,2.67,20.78,4.07,31.16c2.72,20.1,12.52,36.06,30.33,45.61c20.36,10.92,55.46,9.02,74.32-15.57
		c2.68-3.49,3.67-6.42,2.09-10.81c-28.1-77.79-82.2-126.67-162.64-145.9C833.47,582.38,820.27,581.66,806.51,579.76z M766.22,793.76
		c-0.19-0.65-0.18-1.04-0.37-1.22c-13.26-13.02-18.28-29.28-19.09-47.37c-0.23-5.25-0.68-10.8-2.56-15.61
		c-13.85-35.56-51.89-45-82.59-33.18c-10.87,4.19-18.24,12.41-25.37,21.13c-11.94,14.59-26.94,24.53-45.52,28.76
		c-1.3,0.3-3.05,1.74-3.33,2.95c-3.39,14.56-5.7,29.28-5.57,44.55C643.4,793.76,704.63,793.76,766.22,793.76z M890.72,793.73
		c-0.74-31.13-1.41-61.88-2.23-92.63c-0.34-12.81-2.45-25.35-9.83-36.12c-4.87-7.1-10.74-13.52-16.33-20.1
		c-12.25-14.39-28.19-22.49-46.33-26.65c-2.96-0.68-6.03-0.91-9.23-1.37c0,59.44,0,118.02,0,176.87
		C834.45,793.73,861.88,793.73,890.72,793.73z M581.45,805.17c2.76,62.63,26.9,114.62,72.72,157.34
		c5.86-13.47,8.62-26.68,8.72-40.22c0.29-38.29,0.1-76.59,0.07-114.89c0-0.76-0.32-1.52-0.49-2.24
		C635.59,805.17,608.98,805.17,581.45,805.17z M806.88,908.05c0,36.66,0,73.22,0,110.33c49.43-1.77,92.91-18.08,131.29-48.56
		c-18.36-22.29-39.76-30.97-62.09-30.82c-23.8,0.15-44.11-8.59-61.69-24.26C811.94,912.56,809.49,910.38,806.88,908.05z
		 M705.45,681.49c-0.41-0.28-0.16-0.01,0.13,0.08c34.48,10.05,51.25,31.33,53.52,67.42c0.8,12.61,4.98,24.01,13.76,33.48
		c5.75,6.2,13.04,7.89,21.3,8.19c0-58.13,0-115.83,0-174.08c-3.12,0.32-5.91,0.39-8.62,0.9c-26.4,4.97-45.57,20.68-61.49,41.34
		C718.12,666.54,711.71,673.89,705.45,681.49z M625.9,666.97c10.08,8.32,16.79,11.39,30.55,12.63c23,2.07,41.92-4.62,55.76-24.61
		c19.14-27.63,44.18-46.86,79.01-50.36c1.14-0.11,3.04-1.46,3.07-2.29c0.25-7.08,0.14-14.17,0.14-21.92
		C724.73,583.97,669.21,612.95,625.9,666.97z M923.08,859.75c-0.01-11.61-2.22-22.16-9.8-30.92c-23.06-26.62-66.44-27.85-90.71-2.46
		c-8.81,9.22-14.31,20.18-15.75,33.38C845.65,859.75,884.03,859.75,923.08,859.75z M1015.14,752.99c-0.48-0.17-0.95-0.34-1.43-0.51
		c-15.12,17.29-34.68,23.72-56.72,23.27c-22.64-0.46-41.1-9.51-54.71-30.06c0,17.19,0,32.52,0,47.97c39.11,0,77.96,0,117.75,0
		C1018.36,779.82,1016.75,766.4,1015.14,752.99z M794.07,853.19c0-16.46,0-32.17,0-47.91c-39.83,0-79.24,0-118.83,0
		c0,13.99,0,27.71,0,41.7C706.38,809.53,761.29,807.65,794.07,853.19z M592.84,733.57c3.73-1.67,7.46-3.35,11.2-5.02
		c18.08-8.07,26.47-26.59,40.67-37.16c-8.63-4.37-17.29-8.75-26.36-13.34C607.08,694.65,598.28,712.94,592.84,733.57z
		 M827.83,805.36c-6.73,0-13.86,0-20.81,0c0,6.81,0,13.25,0,19.23C814.04,818.1,820.99,811.68,827.83,805.36z"/>
</g>
</svg>
